<svg xmlns="http://www.w3.org/2000/svg" width="16.868" height="21.206" viewBox="0 0 16.868 21.206">
  <g id="next-svgrepo-com" transform="translate(0 0)">
    <g id="Last_Page" transform="translate(0 0)">
      <path id="Path_10720" data-name="Path 10720" d="M26.408.355a1.054,1.054,0,0,0-1.5,0,1.075,1.075,0,0,0,0,1.513L33.6,10.643l-8.691,8.775a1.075,1.075,0,0,0,0,1.513,1.054,1.054,0,0,0,1.5,0l9.44-9.531a1.035,1.035,0,0,0,.3-.835,1.107,1.107,0,0,0-.3-.679Z" transform="translate(-24.597 -0.038)" fill="#fff"/>
      <path id="Path_10721" data-name="Path 10721" d="M192.895,0a1.061,1.061,0,0,0-1.061,1.061V20.122a1.061,1.061,0,1,0,2.122,0V1.061A1.061,1.061,0,0,0,192.895,0Z" transform="translate(-177.087)" fill="#fff"/>
    </g>
  </g>
</svg>
