<svg id="next-svgrepo-com" xmlns="http://www.w3.org/2000/svg" width="16.869" height="21.206" viewBox="0 0 16.869 21.206">
  <g id="Last_Page">
    <path id="Path_10720" data-name="Path 10720" d="M34.337.355a1.054,1.054,0,0,1,1.5,0,1.075,1.075,0,0,1,0,1.513l-8.691,8.775,8.691,8.775a1.075,1.075,0,0,1,0,1.513,1.054,1.054,0,0,1-1.5,0L24.9,11.4a1.035,1.035,0,0,1-.3-.835,1.107,1.107,0,0,1,.3-.679Z" transform="translate(-19.279 -0.038)" fill="#fff"/>
    <path id="Path_10721" data-name="Path 10721" d="M192.895,0a1.061,1.061,0,0,1,1.061,1.061V20.122a1.061,1.061,0,0,1-2.122,0V1.061A1.061,1.061,0,0,1,192.895,0Z" transform="translate(-191.834)" fill="#fff"/>
  </g>
</svg>
