<svg xmlns="http://www.w3.org/2000/svg" width="25.77" height="25.77" viewBox="0 0 25.77 25.77">
  <path id="question-svgrepo-com" d="M13.885,1A12.885,12.885,0,1,0,26.77,13.885,12.885,12.885,0,0,0,13.885,1Zm0,23.787a10.9,10.9,0,1,1,10.9-10.9,10.9,10.9,0,0,1-10.9,10.9ZM16.957,8.1a3.647,3.647,0,0,0-1.209-.833,4.46,4.46,0,0,0-1.8-.317,4.282,4.282,0,0,0-1.744.337,3.324,3.324,0,0,0-1.229.892A3.746,3.746,0,0,0,10.218,9.4a5.947,5.947,0,0,0-.3,1.427h2.438a1.665,1.665,0,0,1,1-1.469,1.427,1.427,0,0,1,.6-.1,1.7,1.7,0,0,1,.535,0,1.269,1.269,0,0,1,.436.278,1.189,1.189,0,0,1,.317.436,1.447,1.447,0,0,1,.119.595,2.345,2.345,0,0,1-.218.991,4.758,4.758,0,0,1-.535.912l-.694.833c-.238.258-.476.535-.694.813a4.619,4.619,0,0,0-.535.892,2.339,2.339,0,0,0-.2.991v1.308h2.379v-.971a1.863,1.863,0,0,1,.218-.833,6.125,6.125,0,0,1,.555-.813l.714-.872a8.5,8.5,0,0,0,.714-.951,5.134,5.134,0,0,0,.555-1.09,3.786,3.786,0,0,0,.218-1.269,4.321,4.321,0,0,0-.2-1.328,3.013,3.013,0,0,0-.694-1.09ZM12.5,18.5h2.319v2.319H12.5Z" transform="translate(-1 -1)" fill="#ea180d" fill-rule="evenodd"/>
</svg>
