<svg xmlns="http://www.w3.org/2000/svg" width="43.816" height="56.335" viewBox="0 0 43.816 56.335">
  <path id="stats1" d="M1113.686,298.335a3.13,3.13,0,0,1-3.13-3.13V260.778a3.13,3.13,0,1,1,6.259,0v34.427A3.13,3.13,0,0,1,1113.686,298.335Zm-12.519,0h0a3.13,3.13,0,0,1-3.13-3.13V273.3a3.13,3.13,0,0,1,3.13-3.13h0a3.13,3.13,0,0,1,3.13,3.13v21.908A3.13,3.13,0,0,1,1101.167,298.335Zm-12.519,0a3.13,3.13,0,0,1-3.13-3.13V245.13a3.13,3.13,0,0,1,6.26,0v50.075A3.13,3.13,0,0,1,1088.648,298.335Zm-12.519,0a3.13,3.13,0,0,1-3.13-3.13v-31.3a3.13,3.13,0,0,1,6.26,0v31.3A3.13,3.13,0,0,1,1076.13,298.335Z" transform="translate(-1073 -242)" fill="#101010" fill-rule="evenodd"/>
</svg>
